<?xml version="1.0" encoding="utf-8"?>
<!-- Generated by Mocodo 4.1.2 -->
<svg width="635" height="623" viewBox="0 0 635 623" xmlns="http://www.w3.org/2000/svg">
<rect x="0" y="0" width="635" height="623" fill="#ffffbf" stroke="none" stroke-width="0"/>

<!-- Association DECORER -->
<g>
	<line x1="178" y1="194" x2="178" y2="51" stroke="#66bd63" stroke-width="2"/>
	<line x1="54" y1="51" x2="178" y2="51" stroke="#66bd63" stroke-width="2"/>
	<g>
		<path d="M201 26 a14 14 90 0 1 14 14 V51 h-74 V40 a14 14 90 0 1 14 -14" fill="#a6d96a" stroke="#a6d96a" stroke-width="0"/>
		<path d="M215 51 v11 a14 14 90 0 1 -14 14 H155 a14 14 90 0 1 -14 -14 V51 H74" fill="#d9ef8b" stroke="#d9ef8b" stroke-width="0"/>
		<rect x="141" y="26" width="74" height="50" fill="none" rx="14" stroke="#66bd63" stroke-width="2"/>
		<line x1="141" y1="51" x2="215" y2="51" stroke="#66bd63" stroke-width="1"/>
		<text x="148" y="43.75" fill="#000000" font-family="Verdana" font-size="12">DECORER</text>
	</g>
	<text x="152" y="93" fill="#d73027" font-family="Verdana" font-size="12">0,1</text>
	<text x="89" y="68" fill="#d73027" font-family="Verdana" font-size="12">1,N</text>
</g>

<!-- Association DOCUMENTER -->
<g>
	<line x1="438" y1="51" x2="304" y2="51" stroke="#66bd63" stroke-width="2"/>
	<line x1="178" y1="194" x2="304" y2="51" stroke="#66bd63" stroke-width="2"/>
	<g>
		<path d="M341 26 a14 14 90 0 1 14 14 V51 h-102 V40 a14 14 90 0 1 14 -14" fill="#a6d96a" stroke="#a6d96a" stroke-width="0"/>
		<path d="M355 51 v11 a14 14 90 0 1 -14 14 H267 a14 14 90 0 1 -14 -14 V51 H102" fill="#d9ef8b" stroke="#d9ef8b" stroke-width="0"/>
		<rect x="253" y="26" width="102" height="50" fill="none" rx="14" stroke="#66bd63" stroke-width="2"/>
		<line x1="253" y1="51" x2="355" y2="51" stroke="#66bd63" stroke-width="1"/>
		<text x="261" y="43.75" fill="#000000" font-family="Verdana" font-size="12">DOCUMENTER</text>
	</g>
	<text x="360" y="68" fill="#d73027" font-family="Verdana" font-size="12">O,N</text>
	<text x="238" y="142.14" fill="#d73027" font-family="Verdana" font-size="12">O,N</text>
</g>

<!-- Association FIGURER -->
<g>
	<line x1="178" y1="194" x2="54" y2="194" stroke="#66bd63" stroke-width="2"/>
	<line x1="54" y1="337" x2="54" y2="194" stroke="#66bd63" stroke-width="2"/>
	<g>
		<path d="M75 169 a14 14 90 0 1 14 14 V194 h-70 V183 a14 14 90 0 1 14 -14" fill="#a6d96a" stroke="#a6d96a" stroke-width="0"/>
		<path d="M89 194 v11 a14 14 90 0 1 -14 14 H33 a14 14 90 0 1 -14 -14 V194 H70" fill="#d9ef8b" stroke="#d9ef8b" stroke-width="0"/>
		<rect x="19" y="169" width="70" height="50" fill="none" rx="14" stroke="#66bd63" stroke-width="2"/>
		<line x1="19" y1="194" x2="89" y2="194" stroke="#66bd63" stroke-width="1"/>
		<text x="27" y="186.75" fill="#000000" font-family="Verdana" font-size="12">FIGURER</text>
	</g>
	<text x="97" y="211" fill="#d73027" font-family="Verdana" font-size="12">0,1</text>
	<text x="59" y="304" fill="#d73027" font-family="Verdana" font-size="12">     </text>
</g>

<!-- Association MESURER -->
<g>
	<line x1="438" y1="194" x2="304" y2="194" stroke="#66bd63" stroke-width="2"/>
	<line x1="178" y1="194" x2="304" y2="194" stroke="#66bd63" stroke-width="2"/>
	<g>
		<path d="M327 169 a14 14 90 0 1 14 14 V194 h-74 V183 a14 14 90 0 1 14 -14" fill="#a6d96a" stroke="#a6d96a" stroke-width="0"/>
		<path d="M341 194 v11 a14 14 90 0 1 -14 14 H281 a14 14 90 0 1 -14 -14 V194 H74" fill="#d9ef8b" stroke="#d9ef8b" stroke-width="0"/>
		<rect x="267" y="169" width="74" height="50" fill="none" rx="14" stroke="#66bd63" stroke-width="2"/>
		<line x1="267" y1="194" x2="341" y2="194" stroke="#66bd63" stroke-width="1"/>
		<text x="274" y="186.75" fill="#000000" font-family="Verdana" font-size="12">MESURER</text>
	</g>
	<text x="365" y="211" fill="#d73027" font-family="Verdana" font-size="12">O,N</text>
	<text x="238" y="211" fill="#d73027" font-family="Verdana" font-size="12">1,1</text>
</g>

<!-- Association EXERCER -->
<g>
	<line x1="438" y1="337" x2="569" y2="194" stroke="#66bd63" stroke-width="2"/>
	<line x1="569" y1="51" x2="569" y2="194" stroke="#66bd63" stroke-width="2"/>
	<g>
		<path d="M591 169 a14 14 90 0 1 14 14 V194 h-72 V183 a14 14 90 0 1 14 -14" fill="#a6d96a" stroke="#a6d96a" stroke-width="0"/>
		<path d="M605 194 v11 a14 14 90 0 1 -14 14 H547 a14 14 90 0 1 -14 -14 V194 H72" fill="#d9ef8b" stroke="#d9ef8b" stroke-width="0"/>
		<rect x="533" y="169" width="72" height="50" fill="none" rx="14" stroke="#66bd63" stroke-width="2"/>
		<line x1="533" y1="194" x2="605" y2="194" stroke="#66bd63" stroke-width="1"/>
		<text x="541" y="186.75" fill="#000000" font-family="Verdana" font-size="12">EXERCER</text>
	</g>
	<text x="448.78" y="295" fill="#d73027" font-family="Verdana" font-size="12">0,N</text>
	<text x="574" y="110" fill="#d73027" font-family="Verdana" font-size="12">O,N</text>
</g>

<!-- Association IDENTIFIER -->
<g>
	<line x1="178" y1="463" x2="178" y2="337" stroke="#66bd63" stroke-width="2"/>
	<line x1="178" y1="194" x2="178" y2="337" stroke="#66bd63" stroke-width="2"/>
	<g>
		<path d="M207 312 a14 14 90 0 1 14 14 V337 h-86 V326 a14 14 90 0 1 14 -14" fill="#a6d96a" stroke="#a6d96a" stroke-width="0"/>
		<path d="M221 337 v11 a14 14 90 0 1 -14 14 H149 a14 14 90 0 1 -14 -14 V337 H86" fill="#d9ef8b" stroke="#d9ef8b" stroke-width="0"/>
		<rect x="135" y="312" width="86" height="50" fill="none" rx="14" stroke="#66bd63" stroke-width="2"/>
		<line x1="135" y1="337" x2="221" y2="337" stroke="#66bd63" stroke-width="1"/>
		<text x="142" y="329.75" fill="#000000" font-family="Verdana" font-size="12">IDENTIFIER</text>
	</g>
	<text x="183" y="379" fill="#d73027" font-family="Verdana" font-size="12">0,N</text>
	<text x="151" y="304" fill="#d73027" font-family="Verdana" font-size="12">0,N</text>
</g>

<!-- Association REALISER -->
<g>
	<line x1="178" y1="194" x2="304" y2="337" stroke="#66bd63" stroke-width="2"/>
	<line x1="438" y1="337" x2="304" y2="337" stroke="#66bd63" stroke-width="2"/>
	<g>
		<path d="M328 312 a14 14 90 0 1 14 14 V337 h-76 V326 a14 14 90 0 1 14 -14" fill="#a6d96a" stroke="#a6d96a" stroke-width="0"/>
		<path d="M342 337 v11 a14 14 90 0 1 -14 14 H280 a14 14 90 0 1 -14 -14 V337 H76" fill="#d9ef8b" stroke="#d9ef8b" stroke-width="0"/>
		<rect x="266" y="312" width="76" height="50" fill="none" rx="14" stroke="#66bd63" stroke-width="2"/>
		<line x1="266" y1="337" x2="342" y2="337" stroke="#66bd63" stroke-width="1"/>
		<text x="274" y="329.75" fill="#000000" font-family="Verdana" font-size="12">REALISER</text>
	</g>
	<text x="238" y="254.86" fill="#d73027" font-family="Verdana" font-size="12">0,N</text>
	<text x="357" y="329" fill="#d73027" font-family="Verdana" font-size="12">O,N</text>
</g>

<!-- Association TRAVAILLER -->
<g>
	<line x1="438" y1="337" x2="569" y2="337" stroke="#66bd63" stroke-width="2"/>
	<line x1="569" y1="463" x2="569" y2="337" stroke="#66bd63" stroke-width="2"/>
	<g>
		<path d="M600 312 a14 14 90 0 1 14 14 V337 h-90 V326 a14 14 90 0 1 14 -14" fill="#a6d96a" stroke="#a6d96a" stroke-width="0"/>
		<path d="M614 337 v11 a14 14 90 0 1 -14 14 H538 a14 14 90 0 1 -14 -14 V337 H90" fill="#d9ef8b" stroke="#d9ef8b" stroke-width="0"/>
		<rect x="524" y="312" width="90" height="50" fill="none" rx="14" stroke="#66bd63" stroke-width="2"/>
		<line x1="524" y1="337" x2="614" y2="337" stroke="#66bd63" stroke-width="1"/>
		<text x="531" y="329.75" fill="#000000" font-family="Verdana" font-size="12">TRAVAILLER</text>
	</g>
	<text x="495" y="354" fill="#d73027" font-family="Verdana" font-size="12">0,N</text>
	<text x="574" y="430" fill="#d73027" font-family="Verdana" font-size="12">O,N</text>
</g>

<!-- Association OCCUPER -->
<g>
	<line x1="54" y1="589" x2="54" y2="463" stroke="#66bd63" stroke-width="2"/>
	<line x1="54" y1="337" x2="54" y2="463" stroke="#66bd63" stroke-width="2"/>
	<g>
		<path d="M77 438 a14 14 90 0 1 14 14 V463 h-74 V452 a14 14 90 0 1 14 -14" fill="#a6d96a" stroke="#a6d96a" stroke-width="0"/>
		<path d="M91 463 v11 a14 14 90 0 1 -14 14 H31 a14 14 90 0 1 -14 -14 V463 H74" fill="#d9ef8b" stroke="#d9ef8b" stroke-width="0"/>
		<rect x="17" y="438" width="74" height="50" fill="none" rx="14" stroke="#66bd63" stroke-width="2"/>
		<line x1="17" y1="463" x2="91" y2="463" stroke="#66bd63" stroke-width="1"/>
		<text x="25" y="455.75" fill="#000000" font-family="Verdana" font-size="12">OCCUPER</text>
	</g>
	<text x="59" y="556" fill="#d73027" font-family="Verdana" font-size="12">0,N</text>
	<text x="59" y="379" fill="#d73027" font-family="Verdana" font-size="12">0,1</text>
</g>

<!-- Association DF0 -->
<g>
	<line x1="178" y1="463" x2="304" y2="463" stroke="#66bd63" stroke-width="2"/>
	<line x1="438" y1="337" x2="304" y2="463" stroke="#66bd63" stroke-width="2"/>
	<g>
		<circle cx="304" cy="463" r="16" stroke="#66bd63" stroke-width="2" fill="#a6d96a"/>
		<text x="295" y="467" fill="#000000" font-family="Verdana" font-size="12">DF</text>
	</g>
	<text x="235" y="480" fill="#d73027" font-family="Verdana" font-size="12">     </text>
	<text x="400.08" y="388" fill="#d73027" font-family="Verdana" font-size="12">     </text>
</g>

<!-- Association VENDRE -->
<g>
	<line x1="438" y1="589" x2="438" y2="463" stroke="#66bd63" stroke-width="2"/>
	<line x1="438" y1="337" x2="438" y2="463" stroke="#66bd63" stroke-width="2"/>
	<g>
		<path d="M457 438 a14 14 90 0 1 14 14 V463 h-66 V452 a14 14 90 0 1 14 -14" fill="#a6d96a" stroke="#a6d96a" stroke-width="0"/>
		<path d="M471 463 v11 a14 14 90 0 1 -14 14 H419 a14 14 90 0 1 -14 -14 V463 H66" fill="#d9ef8b" stroke="#d9ef8b" stroke-width="0"/>
		<rect x="405" y="438" width="66" height="50" fill="none" rx="14" stroke="#66bd63" stroke-width="2"/>
		<line x1="405" y1="463" x2="471" y2="463" stroke="#66bd63" stroke-width="1"/>
		<text x="413" y="455.75" fill="#000000" font-family="Verdana" font-size="12">VENDRE</text>
	</g>
	<text x="443" y="556" fill="#d73027" font-family="Verdana" font-size="12">0,N</text>
	<text x="443" y="388" fill="#d73027" font-family="Verdana" font-size="12">1,N</text>
</g>

<!-- Entity FOND -->
<g>
	<g>
		<rect x="24" y="26" width="60" height="25" fill="#fdae61" stroke="none" stroke-width="0" opacity="1"/>
		<rect x="24" y="51" width="60" height="25" fill="#fee08b" stroke="none" stroke-width="0" opacity="1"/>
		<rect x="24" y="26" width="60" height="50" fill="none" stroke="#f46d43" stroke-width="2" opacity="1"/>
		<line x1="24" y1="51" x2="84" y2="51" stroke="#f46d43" stroke-width="1"/>
	</g>
	<text x="36" y="43.75" fill="#000000" font-family="Verdana" font-size="12">FOND</text>
	<text x="29" y="68.8" fill="#000000" font-family="Verdana" font-size="12">lib_fond</text>
	<line x1="29" y1="71" x2="78" y2="71" stroke="#000000" stroke-width="1"/>
</g>

<!-- Entity VUE -->
<g>
	<g>
		<rect x="389" y="26" width="98" height="25" fill="#fdae61" stroke="none" stroke-width="0" opacity="1"/>
		<rect x="389" y="51" width="98" height="25" fill="#fee08b" stroke="none" stroke-width="0" opacity="1"/>
		<rect x="389" y="26" width="98" height="50" fill="none" stroke="#f46d43" stroke-width="2" opacity="1"/>
		<line x1="389" y1="51" x2="487" y2="51" stroke="#f46d43" stroke-width="1"/>
	</g>
	<text x="425" y="43.75" fill="#000000" font-family="Verdana" font-size="12">VUE</text>
	<text x="394" y="68.8" fill="#000000" font-family="Verdana" font-size="12">lib_monument</text>
	<line x1="394" y1="71" x2="482" y2="71" stroke="#000000" stroke-width="1"/>
</g>

<!-- Entity ADRESSE -->
<g>
	<g>
		<rect x="534" y="9" width="70" height="25" fill="#fdae61" stroke="none" stroke-width="0" opacity="1"/>
		<rect x="534" y="34" width="70" height="59" fill="#fee08b" stroke="none" stroke-width="0" opacity="1"/>
		<rect x="534" y="9" width="70" height="84" fill="none" stroke="#f46d43" stroke-width="2" opacity="1"/>
		<line x1="534" y1="34" x2="604" y2="34" stroke="#f46d43" stroke-width="1"/>
	</g>
	<text x="540" y="26.75" fill="#000000" font-family="Verdana" font-size="12">ADRESSE</text>
	<text x="539" y="51.8" fill="#000000" font-family="Verdana" font-size="12">num_voie</text>
	<line x1="539" y1="54" x2="599" y2="54" stroke="#000000" stroke-width="1"/>
	<text x="539" y="68.8" fill="#000000" font-family="Verdana" font-size="12">lib_voie</text>
	<text x="539" y="85.8" fill="#000000" font-family="Verdana" font-size="12">lib_ville</text>
</g>

<!-- Entity PHOTOGRAPHIE -->
<g>
	<g>
		<rect x="123" y="101" width="110" height="25" fill="#fdae61" stroke="none" stroke-width="0" opacity="1"/>
		<rect x="123" y="126" width="110" height="161" fill="#fee08b" stroke="none" stroke-width="0" opacity="1"/>
		<rect x="123" y="101" width="110" height="186" fill="none" stroke="#f46d43" stroke-width="2" opacity="1"/>
		<line x1="123" y1="126" x2="233" y2="126" stroke="#f46d43" stroke-width="1"/>
	</g>
	<text x="129" y="118.75" fill="#000000" font-family="Verdana" font-size="12">PHOTOGRAPHIE</text>
	<text x="128" y="143.8" fill="#000000" font-family="Verdana" font-size="12">cote</text>
	<line x1="128" y1="146" x2="154" y2="146" stroke="#000000" stroke-width="1"/>
	<text x="128" y="160.8" fill="#000000" font-family="Verdana" font-size="12">lib_description</text>
	<text x="128" y="177.8" fill="#000000" font-family="Verdana" font-size="12">url_recto</text>
	<text x="128" y="194.8" fill="#000000" font-family="Verdana" font-size="12">url_verso</text>
	<text x="128" y="211.8" fill="#000000" font-family="Verdana" font-size="12">bool_orientation</text>
	<text x="128" y="228.8" fill="#000000" font-family="Verdana" font-size="12">datation</text>
	<text x="128" y="245.8" fill="#000000" font-family="Verdana" font-size="12">date_acquisition</text>
	<text x="128" y="262.8" fill="#000000" font-family="Verdana" font-size="12">lieu_achat</text>
	<text x="128" y="279.8" fill="#000000" font-family="Verdana" font-size="12">prix</text>
</g>

<!-- Entity FORMAT -->
<g>
	<g>
		<rect x="394" y="160" width="88" height="25" fill="#fdae61" stroke="none" stroke-width="0" opacity="1"/>
		<rect x="394" y="185" width="88" height="43" fill="#fee08b" stroke="none" stroke-width="0" opacity="1"/>
		<rect x="394" y="160" width="88" height="68" fill="none" stroke="#f46d43" stroke-width="2" opacity="1"/>
		<line x1="394" y1="185" x2="482" y2="185" stroke="#f46d43" stroke-width="1"/>
	</g>
	<text x="413" y="177.75" fill="#000000" font-family="Verdana" font-size="12">FORMAT</text>
	<text x="399" y="202.8" fill="#000000" font-family="Verdana" font-size="12">lib_format</text>
	<line x1="399" y1="205" x2="462" y2="205" stroke="#000000" stroke-width="1"/>
	<text x="399" y="219.8" fill="#000000" font-family="Verdana" font-size="12">taille_format</text>
</g>

<!-- Entity PORTRAIT -->
<g>
	<g>
		<rect x="14" y="312" width="80" height="25" fill="#fdae61" stroke="none" stroke-width="0" opacity="1"/>
		<rect x="14" y="337" width="80" height="25" fill="#fee08b" stroke="none" stroke-width="0" opacity="1"/>
		<rect x="14" y="312" width="80" height="50" fill="none" stroke="#f46d43" stroke-width="2" opacity="1"/>
		<line x1="14" y1="337" x2="94" y2="337" stroke="#f46d43" stroke-width="1"/>
	</g>
	<text x="23" y="329.75" fill="#000000" font-family="Verdana" font-size="12">PORTRAIT</text>
	<text x="19" y="354.8" fill="#000000" font-family="Verdana" font-size="12">bool_genre</text>
	<line x1="19" y1="357" x2="88" y2="357" stroke="#000000" stroke-width="1"/>
</g>

<!-- Entity PHOTOGRAPHE -->
<g>
	<g>
		<rect x="386" y="303" width="104" height="25" fill="#fdae61" stroke="none" stroke-width="0" opacity="1"/>
		<rect x="386" y="328" width="104" height="43" fill="#fee08b" stroke="none" stroke-width="0" opacity="1"/>
		<rect x="386" y="303" width="104" height="68" fill="none" stroke="#f46d43" stroke-width="2" opacity="1"/>
		<line x1="386" y1="328" x2="490" y2="328" stroke="#f46d43" stroke-width="1"/>
	</g>
	<text x="392" y="320.75" fill="#000000" font-family="Verdana" font-size="12">PHOTOGRAPHE</text>
	<text x="391" y="345.8" fill="#000000" font-family="Verdana" font-size="12">date_debut</text>
	<line x1="391" y1="348" x2="461" y2="348" stroke="#000000" stroke-width="1"/>
	<text x="391" y="362.8" fill="#000000" font-family="Verdana" font-size="12">date_fin</text>
</g>

<!-- Entity PERSONNE -->
<g>
	<g>
		<rect x="126" y="387" width="104" height="25" fill="#fdae61" stroke="none" stroke-width="0" opacity="1"/>
		<rect x="126" y="412" width="104" height="127" fill="#fee08b" stroke="none" stroke-width="0" opacity="1"/>
		<rect x="126" y="387" width="104" height="152" fill="none" stroke="#f46d43" stroke-width="2" opacity="1"/>
		<line x1="126" y1="412" x2="230" y2="412" stroke="#f46d43" stroke-width="1"/>
	</g>
	<text x="145" y="404.75" fill="#000000" font-family="Verdana" font-size="12">PERSONNE</text>
	<text x="131" y="429.8" fill="#000000" font-family="Verdana" font-size="12">bool_gender</text>
	<line x1="131" y1="432" x2="207" y2="432" stroke="#000000" stroke-width="1"/>
	<text x="131" y="446.8" fill="#000000" font-family="Verdana" font-size="12">lib_patronyme</text>
	<text x="131" y="463.8" fill="#000000" font-family="Verdana" font-size="12">lib_prenom</text>
	<text x="131" y="480.8" fill="#000000" font-family="Verdana" font-size="12">date_naissance</text>
	<text x="131" y="497.8" fill="#000000" font-family="Verdana" font-size="12">date_deces</text>
	<text x="131" y="514.8" fill="#000000" font-family="Verdana" font-size="12">lieu_naissance</text>
	<text x="131" y="531.8" fill="#000000" font-family="Verdana" font-size="12">lieu_décès</text>
</g>

<!-- Entity VILLE_EXERCICE -->
<g>
	<g>
		<rect x="512" y="438" width="114" height="25" fill="#fdae61" stroke="none" stroke-width="0" opacity="1"/>
		<rect x="512" y="463" width="114" height="25" fill="#fee08b" stroke="none" stroke-width="0" opacity="1"/>
		<rect x="512" y="438" width="114" height="50" fill="none" stroke="#f46d43" stroke-width="2" opacity="1"/>
		<line x1="512" y1="463" x2="626" y2="463" stroke="#f46d43" stroke-width="1"/>
	</g>
	<text x="517" y="455.75" fill="#000000" font-family="Verdana" font-size="12">VILLE_EXERCICE</text>
	<text x="517" y="480.8" fill="#000000" font-family="Verdana" font-size="12">lib_ville</text>
	<line x1="517" y1="483" x2="564" y2="483" stroke="#000000" stroke-width="1"/>
</g>

<!-- Entity PROFESSION -->
<g>
	<g>
		<rect x="9" y="564" width="90" height="25" fill="#fdae61" stroke="none" stroke-width="0" opacity="1"/>
		<rect x="9" y="589" width="90" height="25" fill="#fee08b" stroke="none" stroke-width="0" opacity="1"/>
		<rect x="9" y="564" width="90" height="50" fill="none" stroke="#f46d43" stroke-width="2" opacity="1"/>
		<line x1="9" y1="589" x2="99" y2="589" stroke="#f46d43" stroke-width="1"/>
	</g>
	<text x="14" y="581.75" fill="#000000" font-family="Verdana" font-size="12">PROFESSION</text>
	<text x="14" y="606.8" fill="#000000" font-family="Verdana" font-size="12">lib_metier</text>
	<line x1="14" y1="609" x2="76" y2="609" stroke="#000000" stroke-width="1"/>
</g>

<!-- Entity PRODUCTION -->
<g>
	<g>
		<rect x="391" y="564" width="94" height="25" fill="#fdae61" stroke="none" stroke-width="0" opacity="1"/>
		<rect x="391" y="589" width="94" height="25" fill="#fee08b" stroke="none" stroke-width="0" opacity="1"/>
		<rect x="391" y="564" width="94" height="50" fill="none" stroke="#f46d43" stroke-width="2" opacity="1"/>
		<line x1="391" y1="589" x2="485" y2="589" stroke="#f46d43" stroke-width="1"/>
	</g>
	<text x="397" y="581.75" fill="#000000" font-family="Verdana" font-size="12">PRODUCTION</text>
	<text x="396" y="606.8" fill="#000000" font-family="Verdana" font-size="12">lib_prod</text>
	<line x1="396" y1="609" x2="446" y2="609" stroke="#000000" stroke-width="1"/>
</g>
</svg>